<?xml version="1.0" encoding="utf-8"?>
<!-- Generator: Adobe Illustrator 19.2.0, SVG Export Plug-In . SVG Version: 6.00 Build 0)  -->
<svg version="1.1" id="Layer_1" xmlns="http://www.w3.org/2000/svg" xmlns:xlink="http://www.w3.org/1999/xlink" x="0px" y="0px"
	 viewBox="0 0 141.7 141.7" style="enable-background:new 0 0 141.7 141.7;" xml:space="preserve">
<style type="text/css">
	.st0{fill:#F9F4A4;}
	.st1{fill:#83C889;}
	.st2{fill:#FFFFFF;stroke:#0AA54A;stroke-width:2;stroke-miterlimit:10;}
</style>
<g>
	<path class="st0" d="M123.3,135.3H18c-6.6,0-12-5.4-12-12V18c0-6.6,5.4-12,12-12h105.3c6.6,0,12,5.4,12,12v105.3
		C135.3,129.9,129.9,135.3,123.3,135.3z"/>
	<g id="Adventure_Games">
		<path class="st1" d="M77.9,60.5c0,0-8-19.9,13.4-23.2c0,0,10.9-1.4,15.2,13.8l16.7,27.5l-39.9,9.8L80,73.2l-15.2-0.4l-2.5,16.3
			l-42.8-2.9l22.8-43.5c0,0,12.3-14.5,24.6,3.6c0,0,3.3,1.8,0,13.8L77.9,60.5z"/>
		<circle class="st2" cx="40.5" cy="90.9" r="21.4"/>
		<circle class="st2" cx="105" cy="89.2" r="21.4"/>
	</g>
</g>
</svg>
