<?xml version="1.0" encoding="utf-8"?>
<!-- Generator: Adobe Illustrator 19.2.0, SVG Export Plug-In . SVG Version: 6.00 Build 0)  -->
<svg version="1.1" id="Layer_1" xmlns="http://www.w3.org/2000/svg" xmlns:xlink="http://www.w3.org/1999/xlink" x="0px" y="0px"
	 viewBox="0 0 141.7 141.7" style="enable-background:new 0 0 141.7 141.7;" xml:space="preserve">
<style type="text/css">
	.st0{fill:#78D1F5;}
	.st1{fill:none;stroke:#FFFFFF;stroke-miterlimit:10;}
	.st2{fill:#FFFFFF;}
</style>
<g id="Classic_Games">
	<path class="st0" d="M124.2,135.3H18.9c-6.6,0-12-5.4-12-12V18c0-6.6,5.4-12,12-12h105.3c6.6,0,12,5.4,12,12v105.3
		C136.2,129.9,130.8,135.3,124.2,135.3z"/>
	<g>
		<path class="st1" d="M87.5,54.2c3.1-3.1,7.7-5.7,14.8-5.9c0,0,0.6,0,1.6,0.1c10.1,1.2,17.8,9.8,18.1,19.9
			c0.3,8.4,0.5,24.2-0.8,25.6c0,0,0.6,0.9-5.8-5.2c0,0,0.3-2.4-6.1,4.6c0,0-0.3,2.1-6.4-4.6c0,0-2.2-0.7-4.4,2.6
			c-1.3,1.9-4,2-5.3,0.2c-0.5-0.6-1-1.4-1.5-2.4c0,0-0.9-3.7-6.4,3c0,0-4.3,5.5-3.7-8.8l0.2-15.3C82,62.8,83.9,57.8,87.5,54.2z"/>
		<circle class="st1" cx="98" cy="67.1" r="4.4"/>
		<circle class="st1" cx="111.3" cy="67.1" r="4.4"/>
		<circle class="st2" cx="99" cy="67.3" r="2.2"/>
		<circle class="st2" cx="112.8" cy="67.3" r="2.2"/>
	</g>
	<path class="st1" d="M64.8,55.1c-5.8-7.3-15.6-10.8-25.2-8.2c-12.9,3.5-20.5,16.8-17,29.7s16.8,20.5,29.7,17
		c9.7-2.6,16.4-10.8,17.6-20.1l-24.9-3L64.8,55.1z"/>
	<circle class="st2" cx="45.2" cy="54.4" r="3.6"/>
</g>
</svg>
