<?xml version="1.0" encoding="utf-8"?>
<!-- Generator: Adobe Illustrator 19.2.0, SVG Export Plug-In . SVG Version: 6.00 Build 0)  -->
<svg version="1.1" id="Layer_1" xmlns="http://www.w3.org/2000/svg" xmlns:xlink="http://www.w3.org/1999/xlink" x="0px" y="0px"
	 viewBox="0 0 141.7 141.7" style="enable-background:new 0 0 141.7 141.7;" xml:space="preserve">
<style type="text/css">
	.st0{fill:#A9DAC8;}
	.st1{fill:#AF7FB8;stroke:#FFFFFF;stroke-miterlimit:10;}
	.st2{fill:#A04185;}
	.st3{fill:#EA98C1;}
</style>
<g id="Dress_Up_Games">
	<path class="st0" d="M123.2,135.3H18c-6.6,0-12-5.4-12-12V18.1c0-6.6,5.4-12,12-12h105.3c6.6,0,12,5.4,12,12v105.3
		C135.2,129.9,129.8,135.3,123.2,135.3z"/>
	<path class="st1" d="M40.3,30.5c0,0,5.1-0.2,10.8,7.1c0,0,6.6-7.5,11.2-7.1l0.2-6.4c0,0,1.9-3.3,4.7,0c0,0,2.5,17.7-6.4,33.2
		c0,0,18.6,17,24.4,47.7c0,0,0.2,3.5-2.7,4.4c0,0-44.7,4-64-0.7c0,0-2.9-1.4-0.9-6.3c0.6-1.5,1.2-3,1.6-4.6
		C21.3,90.5,28,70.1,41,57.9c0,0-5.7-12.6-6.1-25.2V25c0,0,2.3-4.6,5.1,0L40.3,30.5z"/>
	<g>
		<path class="st2" d="M112.5,79.1l1.5,0.1c0,0-1.5-22.5,4.3-30.9c0,0-5.2,3.1-10.5,9.3c-0.8,1-1.4,2.2-1.7,3.5
			c-1,4.6-3.7,16.5-5.4,18.3c0,0-7.3,4.5-20.5-2.4c0,0,6.6,5.8,18.3,3.8c0,0,6.5,1,9.3-21.4c0,0,3.7-3.2,4.1,7.3L112.5,79.1z"/>
		<path class="st2" d="M89.7,72.4l9.8-7.3C99.5,65.1,96.3,74.4,89.7,72.4z"/>
		<path class="st3" d="M89.7,72.4c0,0,7.5,3.3,11.4-12.3c0,0,4-17.3,8.8-21.7c0,0,7.9,2.6,8.3,9.9c0,0-2.9,1.4-10.3,9.3
			c-1,1.1-1.7,2.4-2,3.8c-1.1,5.2-3.9,17.6-5.9,18.3c0,0-7.7,4.2-20-2.6C80.1,77,78.9,76.6,89.7,72.4z"/>
	</g>
</g>
</svg>
