<?xml version="1.0" encoding="utf-8"?>
<!-- Generator: Adobe Illustrator 19.2.0, SVG Export Plug-In . SVG Version: 6.00 Build 0)  -->
<svg version="1.1" id="Layer_1" xmlns="http://www.w3.org/2000/svg" xmlns:xlink="http://www.w3.org/1999/xlink" x="0px" y="0px"
	 viewBox="0 0 141.7 141.7" style="enable-background:new 0 0 141.7 141.7;" xml:space="preserve">
<style type="text/css">
	.st0{fill:#FCC6A0;}
	.st1{fill:#D2B16B;}
	.st2{fill:#49351D;}
	.st3{fill:#EDB8D5;}
	.st4{fill:#BAE2DF;}
	.st5{fill:#B8C9E7;}
	.st6{fill:#BCDFB6;}
	.st7{fill:#FFE7AB;}
</style>
<g id="Food_Games">
	<path class="st0" d="M123.9,135.2H18.7c-6.6,0-12-5.4-12-12V17.9c0-6.6,5.4-12,12-12h105.3c6.6,0,12,5.4,12,12v105.3
		C135.9,129.8,130.5,135.2,123.9,135.2z"/>
	<g id="icecream">
		<path class="st1" d="M50.8,76.5l15.8,52.6c0,0,3.9,7.3,8,0l16.5-53L50.8,76.5z"/>
		<path class="st2" d="M40.2,57.5c0,0,8-21.8,33.7-21c0,0,22.1,1.5,27.9,25.4c0,0,8,4,5.1,11.8c0,0-1.1,3.4-6.3,5.4
			c0,0-1.6,6.7-8.9,5.6c0,0-2.2,3.1-7.4,4.4c0,0-14,13.4-21.6-2.5c0,0-7.8,5.1-13.6-3.3c0,0-7.4,1.3-10.2-9.4
			C38.9,73.8,28.4,64,40.2,57.5z"/>
		<path class="st3" d="M40.2,29c0,0,8-21.8,33.7-21c0,0,22.1,1.5,27.9,25.4c0,0,8,4,5.1,11.8c0,0-1.1,3.4-6.3,5.4
			c0,0-1.6,6.7-8.9,5.6c0,0-2.2,3.1-7.4,4.4c0,0-14,13.4-21.6-2.5c0,0-7.8,5.1-13.6-3.3c0,0-7.4,1.3-10.2-9.4
			C38.9,45.3,28.4,35.5,40.2,29z"/>
		
			<rect x="55.1" y="17.4" transform="matrix(0.9129 0.4083 -0.4083 0.9129 12.9349 -20.9884)" class="st4" width="1.2" height="4.8"/>
		<rect x="74" y="23.1" transform="matrix(0.76 -0.6499 0.6499 0.76 1.3514 54.6003)" class="st4" width="1.2" height="4.8"/>
		<rect x="55" y="42" transform="matrix(0.9889 0.1483 -0.1483 0.9889 7.2045 -7.7584)" class="st4" width="1.2" height="4.8"/>
		<rect x="74" y="47.7" transform="matrix(0.4373 0.8993 -0.8993 0.4373 87.0393 -38.888)" class="st4" width="1.2" height="4.8"/>
		<rect x="93" y="34.4" transform="matrix(0.9811 0.1934 -0.1934 0.9811 8.8829 -17.4003)" class="st4" width="1.2" height="4.8"/>
		<rect x="74" y="13.5" transform="matrix(0.4373 0.8993 -0.8993 0.4373 56.2936 -58.126)" class="st5" width="1.2" height="4.8"/>
		
			<rect x="45.5" y="32.5" transform="matrix(0.9483 -0.3173 0.3173 0.9483 -8.6816 16.4347)" class="st5" width="1.2" height="4.8"/>
		
			<rect x="69.3" y="36.3" transform="matrix(0.8451 -0.5346 0.5346 0.8451 -9.8526 43.3269)" class="st5" width="1.2" height="4.8"/>
		
			<rect x="93" y="23" transform="matrix(4.909885e-02 0.9988 -0.9988 4.909885e-02 114.3325 -69.3387)" class="st5" width="1.2" height="4.8"/>
		
			<rect x="58.8" y="28.7" transform="matrix(0.4373 0.8993 -0.8993 0.4373 61.3772 -35.9514)" class="st6" width="1.2" height="4.8"/>
		<rect x="90.2" y="44.8" transform="matrix(0.751 0.6603 -0.6603 0.751 53.7727 -48.1664)" class="st6" width="1.2" height="4.8"/>
		<rect x="80.7" y="30.6" class="st6" width="1.2" height="4.8"/>
		<rect x="81.6" y="42" transform="matrix(0.8993 -0.4373 0.4373 0.8993 -11.1184 40.3975)" class="st7" width="1.2" height="4.8"/>
		<rect x="83.5" y="17.2" transform="matrix(0.866 0.5 -0.5 0.866 21.0766 -39.4022)" class="st7" width="1.2" height="4.8"/>
		<rect x="64.5" y="45.7" transform="matrix(0.8993 -0.4373 0.4373 0.8993 -14.4856 33.3)" class="st7" width="1.2" height="4.8"/>
		<rect x="50.3" y="36.2" transform="matrix(0.866 0.5 -0.5 0.866 26.1185 -20.2446)" class="st7" width="1.2" height="4.8"/>
		
			<rect x="64.5" y="17.2" transform="matrix(0.8993 -0.4373 0.4373 0.8993 -2.0315 30.4328)" class="st7" width="1.2" height="4.8"/>
	</g>
</g>
</svg>
