<?xml version="1.0" encoding="utf-8"?>
<!-- Generator: Adobe Illustrator 19.2.0, SVG Export Plug-In . SVG Version: 6.00 Build 0)  -->
<svg version="1.1" id="Layer_1" xmlns="http://www.w3.org/2000/svg" xmlns:xlink="http://www.w3.org/1999/xlink" x="0px" y="0px"
	 viewBox="0 0 141.7 141.7" style="enable-background:new 0 0 141.7 141.7;" xml:space="preserve">
<style type="text/css">
	.st0{fill:#FDF491;}
	.st1{fill:#EDB8D5;stroke:#FFFFFF;stroke-miterlimit:10;}
	.st2{fill:#FECD86;stroke:#FFFFFF;stroke-miterlimit:10;}
</style>
<g id="Home_Icon">
	<path class="st0" d="M122.3,134.3H17.1c-6.6,0-12-5.4-12-12V17c0-6.6,5.4-12,12-12h105.3c6.6,0,12,5.4,12,12v105.3
		C134.3,128.9,128.9,134.3,122.3,134.3z"/>
	<g id="Home">
		<path class="st1" d="M79,119.5l31.4,0.2c0,0,3.5-0.6,4.2-5.4l0.1-35.9L70.3,40.7L25.7,78.2v37.4c0,0,0.7,4.4,6.1,4.8h28.9V90.8
			h18.7C79.5,90.8,79.6,120.3,79,119.5z"/>
		<path class="st2" d="M8.4,69.7l55.8-45.6c0,0,6.5-5.4,12.9,0l17,14.6V25.1c0,0-0.3-4.1,4.4-3.4h12.9c0,0,3.7,0.7,3.4,4.1l-0.3,29
			l15.7,13.6c0,0,3.4,2.2,2.3,4.2l-6.1,7.5c0,0-2.7,0.9-4.9-2L70.2,35.3L17.8,79.4c0,0-2.7,2.6-5-1.4l-3.9-4.6
			C8.9,73.4,7.6,71.8,8.4,69.7z"/>
	</g>
</g>
</svg>
