<?xml version="1.0" encoding="utf-8"?>
<!-- Generator: Adobe Illustrator 19.2.0, SVG Export Plug-In . SVG Version: 6.00 Build 0)  -->
<svg version="1.1" id="Layer_1" xmlns="http://www.w3.org/2000/svg" xmlns:xlink="http://www.w3.org/1999/xlink" x="0px" y="0px"
	 viewBox="0 0 141.7 141.7" style="enable-background:new 0 0 141.7 141.7;" xml:space="preserve">
<style type="text/css">
	.st0{fill:#EDB8D5;}
	.st1{fill:none;stroke:#FFFFFF;stroke-miterlimit:10;}
	.st2{fill:#FFFFFF;}
	.st3{fill:#EDB8D5;stroke:#FFFFFF;stroke-miterlimit:10;}
	.st4{font-family:'MyriadPro-Regular';}
	.st5{font-size:12px;}
</style>
<g>
	<path class="st0" d="M124.2,135.8H18.9c-6.6,0-12-5.4-12-12V18.5c0-6.6,5.4-12,12-12h105.3c6.6,0,12,5.4,12,12v105.3
		C136.2,130.4,130.8,135.8,124.2,135.8z"/>
	<g>
		<path class="st1" d="M46.2,59.9c-8.3,9.2-15,24.6,6.4,42.3v7.6h11v-4.9c0,0,9.5,4.5,21.2,0v4.2h9.8v-8.3c0,0,8.7-1.9,11.7-14h6V69
			h-6.8c0,0-3.8-8.3-6.4-8.7l11-9.8c0,0-12.1-7.9-20.4,1.9c0,0-5.8-6.2-18.8-5C61.4,48.2,52.6,52.8,46.2,59.9z"/>
		<line class="st1" x1="84.7" y1="55" x2="59" y2="55"/>
		<path class="st1" d="M38.4,76.7c0,0-7.7,3.3-7-4.7"/>
		<circle class="st2" cx="96.3" cy="68.8" r="2.2"/>
	</g>
	<circle class="st3" cx="72.9" cy="44.1" r="11.3"/>
	<text transform="matrix(1 0 0 1 69.833 47.3246)" class="st2 st4 st5">$</text>
</g>
</svg>
