<?xml version="1.0" encoding="utf-8"?>
<!-- Generator: Adobe Illustrator 19.2.0, SVG Export Plug-In . SVG Version: 6.00 Build 0)  -->
<svg version="1.1" id="Layer_1" xmlns="http://www.w3.org/2000/svg" xmlns:xlink="http://www.w3.org/1999/xlink" x="0px" y="0px"
	 viewBox="0 0 141.7 141.7" style="enable-background:new 0 0 141.7 141.7;" xml:space="preserve">
<style type="text/css">
	.st0{fill:#CEB6D8;}
	.st1{fill:#A4DEF2;stroke:#FFFFFF;stroke-width:0.25;stroke-miterlimit:10;}
	.st2{fill:#FFD39A;stroke:#FFFFFF;stroke-width:0.25;stroke-miterlimit:10;}
</style>
<g id="Multiplayer_Games">
	<path class="st0" d="M124.1,135.3H18.9c-6.6,0-12-5.4-12-12V18c0-6.6,5.4-12,12-12h105.3c6.6,0,12,5.4,12,12v105.3
		C136.1,129.9,130.7,135.3,124.1,135.3z"/>
	<g>
		<path class="st1" d="M31.6,82.9h6.7v34.3h20.3V83.3H65V52.9H31.7C31.7,52.9,31.5,82.7,31.6,82.9z"/>
		<circle class="st1" cx="48.5" cy="40.6" r="9.1"/>
	</g>
	<g>
		<path class="st2" d="M75.6,82.8h6.7v34.3h20.3V83.2h6.4V52.9H75.7C75.7,52.9,75.4,82.7,75.6,82.8z"/>
		<circle class="st2" cx="92.5" cy="40.5" r="9.1"/>
	</g>
</g>
</svg>
