<?xml version="1.0" encoding="utf-8"?>
<!-- Generator: Adobe Illustrator 19.2.0, SVG Export Plug-In . SVG Version: 6.00 Build 0)  -->
<svg version="1.1" id="Layer_1" xmlns="http://www.w3.org/2000/svg" xmlns:xlink="http://www.w3.org/1999/xlink" x="0px" y="0px"
	 viewBox="0 0 141.7 141.7" style="enable-background:new 0 0 141.7 141.7;" xml:space="preserve">
<style type="text/css">
	.st0{fill:#83C889;}
	.st1{fill:#F7941E;stroke:#FFFFFF;stroke-miterlimit:10;}
	.st2{fill:#FFFFFF;stroke:#B8E3EC;stroke-miterlimit:10;}
</style>
<g>
	<path class="st0" d="M122.3,134.8H17.1c-6.6,0-12-5.4-12-12V17.6c0-6.6,5.4-12,12-12h105.3c6.6,0,12,5.4,12,12v105.3
		C134.3,129.4,128.9,134.8,122.3,134.8z"/>
	<g>
		<path class="st1" d="M25.4,91.5c0,0,9.5,38.8,37.5,5.6c0,0,21.6,31.9,36.7-4.3c0,0-14.8,15.2-18.1-2.2c-0.8-4-2.7-7.8-6-10.3
			c-3.3-2.5-7.9-3.7-12.6,1.7c0,0-7.6-8.9-16.1,0.7c-2,2.3-3.4,5-4.3,7.9C41,95.3,36.6,103.7,25.4,91.5z"/>
		<circle class="st2" cx="90" cy="39.9" r="19.8"/>
		<path d="M113.2,110.9h1.2c0.7,0,1.3-0.6,1.3-1.3V38.1c0-0.7-0.6-1.3-1.3-1.3h-1.2c-0.7,0-1.3,0.6-1.3,1.3v71.5
			C111.9,110.3,112.5,110.9,113.2,110.9z"/>
	</g>
</g>
</svg>
