<?xml version="1.0" encoding="utf-8"?>
<!-- Generator: Adobe Illustrator 19.2.0, SVG Export Plug-In . SVG Version: 6.00 Build 0)  -->
<svg version="1.1" id="Layer_1" xmlns="http://www.w3.org/2000/svg" xmlns:xlink="http://www.w3.org/1999/xlink" x="0px" y="0px"
	 viewBox="0 0 141.7 141.7" style="enable-background:new 0 0 141.7 141.7;" xml:space="preserve">
<style type="text/css">
	.st0{fill:#E04197;}
	.st1{fill:none;stroke:#FFFFFF;stroke-miterlimit:10;}
	.st2{fill:#FFFFFF;}
	.st3{font-family:'MyriadPro-Regular';}
	.st4{font-size:66px;}
</style>
<g id="Thinking_Games">
	<path class="st0" d="M124.1,135.2H18.9c-6.6,0-12-5.4-12-12V18c0-6.6,5.4-12,12-12h105.3c6.6,0,12,5.4,12,12v105.3
		C136.1,129.8,130.7,135.2,124.1,135.2z"/>
	<path class="st1" d="M97.1,120H55.5c0,0,0.2-18.4-9.1-17.5c0,0-18,6.3-14.7-8.2c0,0,0.9-2.2-0.5-3.1c-1.1-0.7-1.9-1.7-2.1-3
		c-0.2-1.4,0-2.9,1.7-3c0,0-7-0.7,0-7c0,0-6.3-1.3-7.2-6.3c-0.1-0.8,0.2-1.5,0.7-2.1c2.1-1.9,7.4-7.8,6.2-15.8
		c-0.4-2.4-0.5-4.7-0.1-7.1c1.5-9.7,8.3-30.3,40-28.3c0,0,43-2.8,39.2,45.3c0,0-1.4,13.8-9.3,22.4C100.3,86.4,88.7,95.9,97.1,120z"
		/>
	<text transform="matrix(1 0 0 1 59.167 80.7202)" class="st2 st3 st4">?</text>
</g>
</svg>
