<?xml version="1.0" encoding="utf-8"?>
<!-- Generator: Adobe Illustrator 19.2.0, SVG Export Plug-In . SVG Version: 6.00 Build 0)  -->
<svg version="1.1" id="Layer_1" xmlns="http://www.w3.org/2000/svg" xmlns:xlink="http://www.w3.org/1999/xlink" x="0px" y="0px"
	 viewBox="0 0 595.3 841.9" style="enable-background:new 0 0 595.3 841.9;" xml:space="preserve">
<style type="text/css">
	.st0{fill:#FDF491;}
	.st1{fill:#EDB8D5;stroke:#FFFFFF;stroke-miterlimit:10;}
	.st2{fill:#FECD86;stroke:#FFFFFF;stroke-miterlimit:10;}
	.st3{fill:#FCC6A0;}
	.st4{fill:#D2B16B;}
	.st5{fill:#49351D;}
	.st6{fill:#EDB8D5;}
	.st7{fill:#BAE2DF;}
	.st8{fill:#B8C9E7;}
	.st9{fill:#BCDFB6;}
	.st10{fill:#FFE7AB;}
	.st11{display:none;}
	.st12{fill:#C3E5E0;}
	.st13{fill:none;stroke:#FFFFFF;stroke-width:3;stroke-miterlimit:10;}
	.st14{fill:none;stroke:#000000;stroke-miterlimit:10;}
	.st15{fill:none;stroke:#91CB79;stroke-width:2;stroke-miterlimit:10;}
	.st16{fill:#83C889;}
	.st17{fill:#F7941E;stroke:#FFFFFF;stroke-miterlimit:10;}
	.st18{fill:#FFFFFF;stroke:#B8E3EC;stroke-miterlimit:10;}
	.st19{fill:#78D1F5;}
	.st20{fill:none;stroke:#FFFFFF;stroke-miterlimit:10;}
	.st21{fill:#FFFFFF;}
	.st22{fill:#A9DAC8;}
	.st23{fill:#AF7FB8;stroke:#FFFFFF;stroke-miterlimit:10;}
	.st24{fill:#A04185;}
	.st25{fill:#EA98C1;}
	.st26{fill:#E04197;}
	.st27{font-family:'MyriadPro-Regular';}
	.st28{font-size:66px;}
	.st29{font-size:12px;}
	.st30{fill:#F9F4A4;}
	.st31{fill:#FFFFFF;stroke:#0AA54A;stroke-width:2;stroke-miterlimit:10;}
	.st32{fill:#CEB6D8;}
	.st33{fill:#A4DEF2;stroke:#FFFFFF;stroke-width:0.25;stroke-miterlimit:10;}
	.st34{fill:#FFD39A;stroke:#FFFFFF;stroke-width:0.25;stroke-miterlimit:10;}
</style>
<g id="Home_Icon">
	<path class="st0" d="M210.3,158.8H105.1c-6.6,0-12-5.4-12-12V41.5c0-6.6,5.4-12,12-12h105.3c6.6,0,12,5.4,12,12v105.3
		C222.3,153.4,216.9,158.8,210.3,158.8z"/>
	<g id="Home">
		<path class="st1" d="M167,144l31.4,0.2c0,0,3.5-0.6,4.2-5.4l0.1-35.9l-44.4-37.6l-44.6,37.4v37.4c0,0,0.7,4.4,6.1,4.8h28.9v-29.6
			h18.7C167.5,115.3,167.6,144.8,167,144z"/>
		<path class="st2" d="M96.4,94.2l55.8-45.6c0,0,6.5-5.4,12.9,0l17,14.6V49.6c0,0-0.3-4.1,4.4-3.4h12.9c0,0,3.7,0.7,3.4,4.1l-0.3,29
			l15.7,13.6c0,0,3.4,2.2,2.3,4.2l-6.1,7.5c0,0-2.7,0.9-4.9-2l-51.3-42.6L105.8,104c0,0-2.7,2.6-5-1.4L96.9,98
			C96.9,98,95.6,96.3,96.4,94.2z"/>
	</g>
</g>
<g id="Food_Games">
	<path class="st3" d="M505.9,156.2H400.7c-6.6,0-12-5.4-12-12V38.9c0-6.6,5.4-12,12-12h105.3c6.6,0,12,5.4,12,12v105.3
		C517.9,150.8,512.5,156.2,505.9,156.2z"/>
	<g id="icecream">
		<path class="st4" d="M432.8,97.5l15.8,52.6c0,0,3.9,7.3,8,0l16.5-53L432.8,97.5z"/>
		<path class="st5" d="M422.2,78.5c0,0,8-21.8,33.7-21c0,0,22.1,1.5,27.9,25.4c0,0,8,4,5.1,11.8c0,0-1.1,3.4-6.3,5.4
			c0,0-1.6,6.7-8.9,5.6c0,0-2.2,3.1-7.4,4.4c0,0-14,13.4-21.6-2.5c0,0-7.8,5.1-13.6-3.3c0,0-7.4,1.3-10.2-9.4
			C420.9,94.8,410.4,85,422.2,78.5z"/>
		<path class="st6" d="M422.2,50c0,0,8-21.8,33.7-21c0,0,22.1,1.5,27.9,25.4c0,0,8,4,5.1,11.8c0,0-1.1,3.4-6.3,5.4
			c0,0-1.6,6.7-8.9,5.6c0,0-2.2,3.1-7.4,4.4c0,0-14,13.4-21.6-2.5c0,0-7.8,5.1-13.6-3.3c0,0-7.4,1.3-10.2-9.4
			C420.9,66.3,410.4,56.5,422.2,50z"/>
		
			<rect x="437.1" y="38.4" transform="matrix(0.9129 0.4083 -0.4083 0.9129 54.7927 -175.1119)" class="st7" width="1.2" height="4.8"/>
		<rect x="456" y="44.1" transform="matrix(0.76 -0.6499 0.6499 0.76 79.3731 307.8979)" class="st7" width="1.2" height="4.8"/>
		<rect x="437" y="63" transform="matrix(0.9889 0.1483 -0.1483 0.9889 14.5442 -64.1834)" class="st7" width="1.2" height="4.8"/>
		
			<rect x="456" y="68.7" transform="matrix(0.4373 0.8993 -0.8993 0.4373 320.8843 -370.6132)" class="st7" width="1.2" height="4.8"/>
		
			<rect x="475" y="55.4" transform="matrix(0.9811 0.1934 -0.1934 0.9811 20.1526 -90.8673)" class="st7" width="1.2" height="4.8"/>
		
			<rect x="456" y="34.5" transform="matrix(0.4373 0.8993 -0.8993 0.4373 290.1386 -389.8513)" class="st8" width="1.2" height="4.8"/>
		
			<rect x="427.5" y="53.5" transform="matrix(0.9483 -0.3173 0.3173 0.9483 4.3967 138.735)" class="st8" width="1.2" height="4.8"/>
		
			<rect x="451.3" y="57.3" transform="matrix(0.8451 -0.5346 0.5346 0.8451 38.0834 250.7839)" class="st8" width="1.2" height="4.8"/>
		
			<rect x="475" y="44" transform="matrix(4.909885e-02 0.9988 -0.9988 4.909885e-02 498.5514 -430.909)" class="st8" width="1.2" height="4.8"/>
		
			<rect x="440.8" y="49.7" transform="matrix(0.4373 0.8993 -0.8993 0.4373 295.2222 -367.6767)" class="st9" width="1.2" height="4.8"/>
		
			<rect x="472.2" y="65.8" transform="matrix(0.751 0.6603 -0.6603 0.751 162.7704 -295.1865)" class="st9" width="1.2" height="4.8"/>
		<rect x="462.7" y="51.6" class="st9" width="1.2" height="4.8"/>
		
			<rect x="463.6" y="63" transform="matrix(0.8993 -0.4373 0.4373 0.8993 18.1564 209.5524)" class="st10" width="1.2" height="4.8"/>
		<rect x="465.5" y="38.2" transform="matrix(0.866 0.5 -0.5 0.866 82.7549 -227.5887)" class="st10" width="1.2" height="4.8"/>
		
			<rect x="446.5" y="66.7" transform="matrix(0.8993 -0.4373 0.4373 0.8993 14.7891 202.455)" class="st10" width="1.2" height="4.8"/>
		<rect x="432.3" y="57.2" transform="matrix(0.866 0.5 -0.5 0.866 87.7968 -208.4312)" class="st10" width="1.2" height="4.8"/>
		
			<rect x="446.5" y="38.2" transform="matrix(0.8993 -0.4373 0.4373 0.8993 27.2432 199.5877)" class="st10" width="1.2" height="4.8"/>
	</g>
</g>
<g id="X0hNh0_1_" class="st11">
	
		<image style="display:inline;overflow:visible;" width="580" height="360" id="X0hNh0_2_" xlink:href="939D72556FD9961E.jpg"  transform="matrix(1.2756 0 0 1.2756 -266.8178 60.8337)">
	</image>
</g>
<g id="Grown_Up_Games">
	<path class="st12" d="M208.3,324H103.1c-6.6,0-12-5.4-12-12V206.8c0-6.6,5.4-12,12-12h105.3c6.6,0,12,5.4,12,12V312
		C220.3,318.6,214.9,324,208.3,324z"/>
	<g>
		<line class="st13" x1="128.9" y1="237.5" x2="185.2" y2="237.5"/>
		<g>
			<line class="st14" x1="116.9" y1="196.4" x2="120.9" y2="202.7"/>
			<line class="st14" x1="131" y1="220.7" x2="133.2" y2="224.3"/>
			<circle class="st15" cx="128.7" cy="216.6" r="4.9"/>
			<circle class="st15" cx="124.2" cy="207.3" r="4.9"/>
		</g>
		<g>
			<line class="st13" x1="131.6" y1="315.4" x2="180.9" y2="315.4"/>
			<line class="st13" x1="157.4" y1="267.2" x2="157.4" y2="314.7"/>
		</g>
		<path class="st13" d="M157.1,213.1h44.2c2.3,0,3.5,2.7,2,4.4l-21.1,23.8l-25,28.2l-25-28.2l-21.9-24.6c-1.2-1.4-0.2-3.6,1.6-3.6
			H157.1z"/>
	</g>
</g>
<g>
	<path class="st16" d="M509.3,323.8H404.1c-6.6,0-12-5.4-12-12V206.6c0-6.6,5.4-12,12-12h105.3c6.6,0,12,5.4,12,12v105.3
		C521.3,318.4,515.9,323.8,509.3,323.8z"/>
	<g>
		<path class="st17" d="M412.4,280.5c0,0,9.5,38.8,37.5,5.6c0,0,21.6,31.9,36.7-4.3c0,0-14.8,15.2-18.1-2.2c-0.8-4-2.7-7.8-6-10.3
			c-3.3-2.5-7.9-3.7-12.6,1.7c0,0-7.6-8.9-16.1,0.7c-2,2.3-3.4,5-4.3,7.9C428,284.3,423.6,292.7,412.4,280.5z"/>
		<circle class="st18" cx="477" cy="228.9" r="19.8"/>
		<path d="M500.2,299.9h1.2c0.7,0,1.3-0.6,1.3-1.3v-71.5c0-0.7-0.6-1.3-1.3-1.3h-1.2c-0.7,0-1.3,0.6-1.3,1.3v71.5
			C498.9,299.3,499.5,299.9,500.2,299.9z"/>
	</g>
</g>
<g id="Classic_Games">
	<path class="st19" d="M210.2,486.3H104.9c-6.6,0-12-5.4-12-12V369c0-6.6,5.4-12,12-12h105.3c6.6,0,12,5.4,12,12v105.3
		C222.2,480.9,216.8,486.3,210.2,486.3z"/>
	<g>
		<path class="st20" d="M173.5,405.2c3.1-3.1,7.7-5.7,14.8-5.9c0,0,0.6,0,1.6,0.1c10.1,1.2,17.8,9.8,18.1,19.9
			c0.3,8.4,0.5,24.2-0.8,25.6c0,0,0.6,0.9-5.8-5.2c0,0,0.3-2.4-6.1,4.6c0,0-0.3,2.1-6.4-4.6c0,0-2.2-0.7-4.4,2.6
			c-1.3,1.9-4,2-5.3,0.2c-0.5-0.6-1-1.4-1.5-2.4c0,0-0.9-3.7-6.4,3c0,0-4.3,5.5-3.7-8.8l0.2-15.3C168,413.8,169.9,408.8,173.5,405.2
			z"/>
		<circle class="st20" cx="184" cy="418.1" r="4.4"/>
		<circle class="st20" cx="197.3" cy="418.1" r="4.4"/>
		<circle class="st21" cx="185" cy="418.3" r="2.2"/>
		<circle class="st21" cx="198.8" cy="418.3" r="2.2"/>
	</g>
	<path class="st20" d="M150.8,406.1c-5.8-7.3-15.6-10.8-25.2-8.2c-12.9,3.5-20.5,16.8-17,29.7s16.8,20.5,29.7,17
		c9.7-2.6,16.4-10.8,17.6-20.1l-24.9-3L150.8,406.1z"/>
	<circle class="st21" cx="131.2" cy="405.4" r="3.6"/>
</g>
<g id="Dress_Up_Games">
	<path class="st22" d="M506.2,490.3H401c-6.6,0-12-5.4-12-12V373.1c0-6.6,5.4-12,12-12h105.3c6.6,0,12,5.4,12,12v105.3
		C518.2,484.9,512.8,490.3,506.2,490.3z"/>
	<path class="st23" d="M423.3,385.5c0,0,5.1-0.2,10.8,7.1c0,0,6.6-7.5,11.2-7.1l0.2-6.4c0,0,1.9-3.3,4.7,0c0,0,2.5,17.7-6.4,33.2
		c0,0,18.6,17,24.4,47.7c0,0,0.2,3.5-2.7,4.4c0,0-44.7,4-64-0.7c0,0-2.9-1.4-0.9-6.3c0.6-1.5,1.2-3,1.6-4.6
		c2.1-7.3,8.8-27.8,21.8-39.9c0,0-5.7-12.6-6.1-25.2V380c0,0,2.3-4.6,5.1,0L423.3,385.5z"/>
	<g>
		<path class="st24" d="M495.5,434.1l1.5,0.1c0,0-1.5-22.5,4.3-30.9c0,0-5.2,3.1-10.5,9.3c-0.8,1-1.4,2.2-1.7,3.5
			c-1,4.6-3.7,16.5-5.4,18.3c0,0-7.3,4.5-20.5-2.4c0,0,6.6,5.8,18.3,3.8c0,0,6.5,1,9.3-21.4c0,0,3.7-3.2,4.1,7.3L495.5,434.1z"/>
		<path class="st24" d="M472.7,427.4l9.8-7.3C482.5,420.1,479.3,429.4,472.7,427.4z"/>
		<path class="st25" d="M472.7,427.4c0,0,7.5,3.3,11.4-12.3c0,0,4-17.3,8.8-21.7c0,0,7.9,2.6,8.3,9.9c0,0-2.9,1.4-10.3,9.3
			c-1,1.1-1.7,2.4-2,3.8c-1.1,5.2-3.9,17.6-5.9,18.3c0,0-7.7,4.2-20-2.6C463.1,432,461.9,431.6,472.7,427.4z"/>
	</g>
</g>
<g id="Thinking_Games">
	<path class="st26" d="M208.1,653.2H102.9c-6.6,0-12-5.4-12-12V536c0-6.6,5.4-12,12-12h105.3c6.6,0,12,5.4,12,12v105.3
		C220.1,647.8,214.7,653.2,208.1,653.2z"/>
	<path class="st20" d="M181.1,638h-41.6c0,0,0.2-18.4-9.1-17.5c0,0-18,6.3-14.7-8.2c0,0,0.9-2.2-0.5-3.1c-1.1-0.7-1.9-1.7-2.1-3
		c-0.2-1.4,0-2.9,1.7-3c0,0-7-0.7,0-7c0,0-6.3-1.3-7.2-6.3c-0.1-0.8,0.2-1.5,0.7-2.1c2.1-1.9,7.4-7.8,6.2-15.8
		c-0.4-2.4-0.5-4.7-0.1-7.1c1.5-9.7,8.3-30.3,40-28.3c0,0,43-2.8,39.2,45.3c0,0-1.4,13.8-9.3,22.4
		C184.3,604.4,172.7,613.9,181.1,638z"/>
	<text transform="matrix(1 0 0 1 143.167 598.7202)" class="st21 st27 st28">?</text>
</g>
<g>
	<path class="st6" d="M203.2,822.8H97.9c-6.6,0-12-5.4-12-12V705.5c0-6.6,5.4-12,12-12h105.3c6.6,0,12,5.4,12,12v105.3
		C215.2,817.4,209.8,822.8,203.2,822.8z"/>
	<g>
		<path class="st20" d="M125.2,746.9c-8.3,9.2-15,24.6,6.4,42.3v7.6h11v-4.9c0,0,9.5,4.5,21.2,0v4.2h9.8v-8.3c0,0,8.7-1.9,11.7-14h6
			V756h-6.8c0,0-3.8-8.3-6.4-8.7l11-9.8c0,0-12.1-7.9-20.4,1.9c0,0-5.8-6.2-18.8-5C140.4,735.2,131.6,739.8,125.2,746.9z"/>
		<line class="st20" x1="163.7" y1="742" x2="138" y2="742"/>
		<path class="st20" d="M117.4,763.7c0,0-7.7,3.3-7-4.7"/>
		<circle class="st21" cx="175.3" cy="755.8" r="2.2"/>
	</g>
	<circle class="st1" cx="151.9" cy="731.1" r="11.3"/>
	<text transform="matrix(1 0 0 1 148.833 734.3246)" class="st21 st27 st29">$</text>
</g>
<path class="st30" d="M502.3,653.3H397c-6.6,0-12-5.4-12-12V536c0-6.6,5.4-12,12-12h105.3c6.6,0,12,5.4,12,12v105.3
	C514.3,647.9,508.9,653.3,502.3,653.3z"/>
<g id="Adventure_Games">
	<path class="st16" d="M456.9,578.5c0,0-8-19.9,13.4-23.2c0,0,10.9-1.4,15.2,13.8l16.7,27.5l-39.9,9.8l-3.3-15.2l-15.2-0.4
		l-2.5,16.3l-42.8-2.9l22.8-43.5c0,0,12.3-14.5,24.6,3.6c0,0,3.3,1.8,0,13.8L456.9,578.5z"/>
	<circle class="st31" cx="419.5" cy="608.9" r="21.4"/>
	<circle class="st31" cx="484" cy="607.2" r="21.4"/>
</g>
<g id="Multiplayer_Games">
	<path class="st32" d="M499.1,828.3H393.9c-6.6,0-12-5.4-12-12V711c0-6.6,5.4-12,12-12h105.3c6.6,0,12,5.4,12,12v105.3
		C511.1,822.9,505.7,828.3,499.1,828.3z"/>
	<g>
		<path class="st33" d="M406.6,775.9h6.7v34.3h20.3v-33.9h6.4v-30.4h-33.3C406.7,745.9,406.5,775.7,406.6,775.9z"/>
		<circle class="st33" cx="423.5" cy="733.6" r="9.1"/>
	</g>
	<g>
		<path class="st34" d="M450.6,775.8h6.7v34.3h20.3v-33.9h6.4v-30.4h-33.3C450.7,745.9,450.4,775.7,450.6,775.8z"/>
		<circle class="st34" cx="467.5" cy="733.5" r="9.1"/>
	</g>
</g>
</svg>
